<svg xmlns="http://www.w3.org/2000/svg" width="38" height="37.914"><path d="M37.148 29.988l-5.869-5.869a3.06 3.06 0 0 0-4.314.081l-2.957 2.956-.583-.325a29.422 29.422 0 0 1-7.111-5.143 29.586 29.586 0 0 1-5.154-7.124c-.109-.2-.214-.389-.318-.57l1.984-1.981.976-.977a3.057 3.057 0 0 0 .079-4.315L8.012.851A3.057 3.057 0 0 0 3.7.932L2.044 2.596l.045.045a9.564 9.564 0 0 0-1.363 2.4A9.967 9.967 0 0 0 .12 7.483c-.775 6.423 2.16 12.295 10.127 20.262 11.013 11.012 19.887 10.18 20.27 10.139a9.916 9.916 0 0 0 2.445-.614 9.532 9.532 0 0 0 2.4-1.357l.036.032 1.672-1.639a3.063 3.063 0 0 0 .078-4.318z"/></svg>