<svg xmlns="http://www.w3.org/2000/svg" width="248.027" height="217.024" viewBox="173.626 33.218 248.027 217.024"><path fill="#4E5053" d="M182.484 73.08h230.311a8.858 8.858 0 0 0 8.858-8.858V42.076a8.858 8.858 0 0 0-8.858-8.858H182.484a8.858 8.858 0 0 0-8.858 8.858v22.145a8.858 8.858 0 0 0 8.858 8.859zm0 88.581h230.311a8.858 8.858 0 0 0 8.858-8.858v-22.145a8.858 8.858 0 0 0-8.858-8.858H182.484a8.858 8.858 0 0 0-8.858 8.858v22.145a8.858 8.858 0 0 0 8.858 8.858zm0 88.581h230.311a8.858 8.858 0 0 0 8.858-8.858v-22.145a8.858 8.858 0 0 0-8.858-8.858H182.484a8.858 8.858 0 0 0-8.858 8.858v22.145a8.858 8.858 0 0 0 8.858 8.858z"/></svg>