<svg xmlns="http://www.w3.org/2000/svg" width="248.027" height="283.46" viewBox="173.626 0 248.027 283.46"><path fill="#FF503F" d="M395.079 35.433h-26.574V6.644c0-3.654-2.99-6.644-6.644-6.644h-22.145c-3.654 0-6.644 2.99-6.644 6.644v28.789h-70.865V6.644c0-3.654-2.99-6.644-6.644-6.644h-22.145c-3.654 0-6.644 2.99-6.644 6.644v28.789H200.2c-14.671 0-26.574 11.903-26.574 26.574v194.879c0 14.671 11.903 26.574 26.574 26.574h194.879c14.671 0 26.574-11.903 26.574-26.574V62.007c.001-14.671-11.902-26.574-26.574-26.574zm-3.321 221.453H203.522a3.332 3.332 0 0 1-3.322-3.322V88.581h194.879v164.983a3.331 3.331 0 0 1-3.321 3.322z"/></svg>