<svg xmlns="http://www.w3.org/2000/svg" width="274.602" height="274.602" viewBox="160.339 4.429 274.602 274.602"><path fill="#D5D5D5" d="M297.64 4.429c-75.848 0-137.301 61.453-137.301 137.301s61.453 137.301 137.301 137.301 137.301-61.453 137.301-137.301S373.488 4.429 297.64 4.429zm0 248.028c-61.176 0-110.727-49.55-110.727-110.727S236.464 31.003 297.64 31.003s110.727 49.55 110.727 110.727-49.551 110.727-110.727 110.727zm34.215-57.8l-47.003-34.159a6.687 6.687 0 0 1-2.713-5.37V64.221c0-3.654 2.99-6.644 6.644-6.644h17.716c3.654 0 6.644 2.99 6.644 6.644v78.45l36.983 26.907c2.99 2.159 3.599 6.311 1.439 9.301l-10.408 14.339c-2.161 2.934-6.313 3.598-9.302 1.439z"/></svg>