<svg xmlns="http://www.w3.org/2000/svg" width="262.873" height="274.603" viewBox="166.204 4.429 262.873 274.603"><path fill="#FF503F" d="M402.159 161.163l23.594 13.619a6.655 6.655 0 0 1 3.022 7.743c-6.129 19.733-16.592 37.56-30.278 52.366a6.652 6.652 0 0 1-8.211 1.248l-23.576-13.617a106.051 106.051 0 0 1-33.638 19.449V269.2a6.647 6.647 0 0 1-5.191 6.487c-19.353 4.346-40.138 4.571-60.467.004a6.658 6.658 0 0 1-5.206-6.49v-27.23a106.051 106.051 0 0 1-33.638-19.449l-23.576 13.617a6.65 6.65 0 0 1-8.211-1.248c-13.685-14.806-24.149-32.633-30.278-52.366a6.658 6.658 0 0 1 3.022-7.743l23.594-13.619a107.106 107.106 0 0 1 0-38.864l-23.594-13.619a6.655 6.655 0 0 1-3.022-7.743c6.129-19.733 16.592-37.56 30.278-52.366a6.652 6.652 0 0 1 8.211-1.248L228.57 60.94a106.051 106.051 0 0 1 33.638-19.449v-27.23a6.647 6.647 0 0 1 5.191-6.487c19.353-4.346 40.138-4.571 60.467-.004a6.658 6.658 0 0 1 5.206 6.49v27.23a106.051 106.051 0 0 1 33.638 19.449l23.576-13.617a6.65 6.65 0 0 1 8.211 1.248c13.685 14.806 24.149 32.633 30.278 52.366a6.658 6.658 0 0 1-3.022 7.743l-23.594 13.619a107.112 107.112 0 0 1 0 38.865zm-60.228-19.433c0-24.422-19.869-44.291-44.291-44.291s-44.291 19.869-44.291 44.291 19.869 44.291 44.291 44.291 44.291-19.869 44.291-44.291z"/></svg>