<svg xmlns="http://www.w3.org/2000/svg" width="318.931" height="248.027" viewBox="138.19 17.716 318.931 248.027"><path fill="#BCBCBC" d="M432.726 213.813c15.225-15.003 24.36-33.827 24.36-54.367 0-44.291-42.353-80.886-97.55-87.419-17.439-31.889-58.408-54.311-106.187-54.311-63.612 0-115.156 39.64-115.156 88.581 0 20.484 9.135 39.308 24.36 54.367-8.471 16.997-20.65 30.173-20.872 30.394-3.488 3.709-4.484 9.135-2.436 13.841 1.993 4.706 6.644 7.751 11.737 7.751 29.619 0 53.536-11.183 69.315-21.481 5.093 1.163 10.353 2.048 15.723 2.713 17.384 31.779 58.187 54.145 105.91 54.145 11.516 0 22.588-1.329 33.107-3.765 15.779 10.242 39.64 21.481 69.315 21.481 5.093 0 9.689-3.045 11.737-7.751 1.993-4.706 1.052-10.131-2.436-13.841-.221-.165-12.456-13.341-20.927-30.338zm-217.467-51.1l-9.467 6.145c-7.806 5.038-15.779 9.024-23.862 11.848a186.78 186.78 0 0 0 4.429-8.194l8.581-17.218-13.73-13.564c-7.474-7.419-16.443-19.543-16.443-35.432 0-33.606 40.581-62.007 88.581-62.007s88.581 28.401 88.581 62.007-40.581 62.007-88.581 62.007c-9.135 0-18.27-1.052-27.128-3.1l-10.961-2.492zm198.81 32.166l-13.675 13.509 8.581 17.218a186.78 186.78 0 0 0 4.429 8.194c-8.083-2.824-16.055-6.81-23.862-11.848l-9.467-6.145-11.017 2.547a120.662 120.662 0 0 1-27.128 3.1c-29.896 0-56.581-11.128-72.692-27.516 56.083-5.979 99.266-42.851 99.266-87.64 0-1.882-.221-3.709-.388-5.536 35.654 8.028 62.394 31.446 62.394 58.685.002 15.889-8.967 28.013-16.441 35.432z"/></svg>