<svg xmlns="http://www.w3.org/2000/svg" width="283.482" height="283.457" viewBox="155.934 0.014 283.482 283.457"><path fill="#D5D5D5" d="M399.508 3.599L169.197 136.415c-19.045 11.017-17.218 39.197 3.156 47.557l63.28 26.187v46.727c0 25.689 32.775 36.263 47.945 15.834L307.827 240l61.952 25.578a26.847 26.847 0 0 0 10.131 1.993c4.54 0 9.024-1.163 13.066-3.433 7.086-3.986 11.958-11.073 13.232-19.1l32.886-214.367c3.376-22.2-20.43-38.09-39.586-27.072zm-137.3 253.287v-35.765l20.263 8.36-20.263 27.405zm117.702-15.89l-85.149-35.156 77.619-112c5.924-8.581-5.26-18.547-13.121-11.737L242.166 184.138l-59.682-24.692L412.796 26.574 379.91 240.996z"/></svg>