<svg xmlns="http://www.w3.org/2000/svg" width="248.027" height="248.027" viewBox="173.626 17.716 248.027 248.027"><path fill="#FFF" d="M403.938 115.156h-79.723V35.433c0-9.783-7.934-17.716-17.716-17.716h-17.716c-9.783 0-17.716 7.934-17.716 17.716v79.723h-79.723c-9.783 0-17.716 7.934-17.716 17.716v17.716c0 9.783 7.934 17.716 17.716 17.716h79.723v79.723c0 9.783 7.934 17.716 17.716 17.716h17.716c9.783 0 17.716-7.934 17.716-17.716v-79.723h79.723c9.783 0 17.716-7.934 17.716-17.716v-17.716c0-9.783-7.934-17.716-17.716-17.716z"/></svg>