<svg xmlns="http://www.w3.org/2000/svg" width="274.602" height="279.031" viewBox="160.339 0 274.602 279.031"><path fill="#4D4F51" d="M377.363 29.952c34.879 24.913 57.578 65.661 57.578 111.778 0 75.737-61.342 137.135-137.024 137.301-75.571.166-137.467-61.453-137.578-137.079-.055-46.118 22.644-86.976 57.467-111.945 6.477-4.595 15.502-2.657 19.377 4.263l8.747 15.557c3.266 5.813 1.716 13.176-3.654 17.163-22.976 17.052-37.647 44.069-37.647 74.685-.055 51.1 41.246 93.066 93.01 93.066 50.713 0 93.342-41.08 93.01-93.619-.166-28.678-13.675-56.36-37.702-74.187-5.37-3.986-6.865-11.349-3.599-17.107l8.747-15.557c3.877-6.866 12.846-8.915 19.268-4.319zm-57.578 116.207V13.287A13.255 13.255 0 0 0 306.498 0h-17.716a13.255 13.255 0 0 0-13.287 13.287v132.872a13.255 13.255 0 0 0 13.287 13.287h17.716a13.255 13.255 0 0 0 13.287-13.287z"/></svg>