<svg xmlns="http://www.w3.org/2000/svg" width="283.459" height="248.041" viewBox="155.909 17.723 283.459 248.041"><path fill="#FF503F" d="M387.439 98.104a278.388 278.388 0 0 0-8.969-2.824c.498-2.048.941-4.097 1.384-6.145 6.81-32.997 2.325-59.516-12.789-68.263-14.561-8.36-38.311.332-62.339 21.26a151.375 151.375 0 0 0-6.92 6.367 168.498 168.498 0 0 0-4.595-4.263c-25.19-22.367-50.436-31.779-65.55-22.976-14.505 8.415-18.824 33.384-12.734 64.609.609 3.1 1.273 6.145 2.048 9.246a161.632 161.632 0 0 0-10.298 3.266c-29.564 10.242-50.768 26.408-50.768 43.128 0 17.273 22.588 34.602 53.315 45.121 2.491.83 4.983 1.661 7.529 2.381-.83 3.322-1.55 6.588-2.215 9.965-5.813 30.727-1.273 55.086 13.232 63.446 14.948 8.637 40.083-.221 64.554-21.647a171.21 171.21 0 0 0 5.813-5.37c2.436 2.381 4.983 4.651 7.529 6.865 23.695 20.374 47.114 28.623 61.564 20.263 14.948-8.637 19.82-34.824 13.509-66.713a231.834 231.834 0 0 0-1.661-7.474c1.772-.498 3.488-1.052 5.204-1.606 31.945-10.574 55.086-27.682 55.086-45.232.002-16.775-21.811-33.051-51.929-43.404zM312.533 51.1c20.595-17.938 39.806-24.969 48.554-19.931 9.356 5.37 12.955 27.073 7.086 55.585-.388 1.882-.775 3.709-1.273 5.536-12.291-2.768-24.747-4.761-37.259-5.869-7.197-10.298-15.059-20.152-23.585-29.398a215.975 215.975 0 0 1 6.477-5.923zM240.56 155.792c2.547 4.872 5.149 9.689 7.917 14.45 2.824 4.817 5.702 9.633 8.747 14.339a250.654 250.654 0 0 1-25.689-4.152c2.437-7.972 5.482-16.221 9.025-24.637zm0-28.014a263.941 263.941 0 0 1-8.858-24.138c7.972-1.772 16.443-3.211 25.246-4.318-2.934 4.595-5.813 9.301-8.526 14.062-2.713 4.706-5.37 9.522-7.862 14.394zm6.312 14.007c3.654-7.64 7.64-15.114 11.848-22.477s8.747-14.505 13.509-21.536c8.305-.609 16.775-.941 25.412-.941s17.163.332 25.412.941c4.706 6.976 9.19 14.118 13.453 21.426s8.249 14.782 12.014 22.367a366.986 366.986 0 0 1-11.958 22.588c-4.208 7.363-8.692 14.505-13.398 21.592-8.249.609-16.83.886-25.522.886s-17.107-.277-25.246-.775a336.272 336.272 0 0 1-13.619-21.592c-4.265-7.364-8.196-14.838-11.905-22.479zm99.986 28.346c2.824-4.872 5.481-9.799 8.083-14.782a256.87 256.87 0 0 1 9.356 24.526 242.935 242.935 0 0 1-26.021 4.429c2.99-4.65 5.814-9.411 8.582-14.173zm7.972-42.353c-2.602-4.872-5.259-9.744-8.028-14.505a359.8 359.8 0 0 0-8.471-13.952c8.913 1.107 17.439 2.602 25.412 4.429-2.546 8.195-5.536 16.167-8.913 24.028zm-57.079-62.283a243.204 243.204 0 0 1 16.388 19.82 363.343 363.343 0 0 0-32.941 0 279.178 279.178 0 0 1 16.553-19.82zm-64.222-33.938c9.301-5.426 29.952 2.325 51.709 21.592 1.384 1.218 2.768 2.547 4.208 3.875-8.581 9.246-16.498 19.1-23.751 29.398-12.512 1.107-24.913 3.045-37.204 5.758-.72-2.824-1.329-5.702-1.938-8.581-5.204-26.796-1.771-47.004 6.976-52.042zm-13.564 145.938a141.076 141.076 0 0 1-6.865-2.159c-11.792-3.709-25.19-9.578-34.879-17.273a24.84 24.84 0 0 1-10.408-16.554c0-10.131 17.495-23.086 42.74-31.889 3.156-1.107 6.367-2.104 9.578-3.045a294.356 294.356 0 0 0 13.564 35.211 302.697 302.697 0 0 0-13.73 35.709zm64.554 54.256c-9.135 8.36-19.709 15.003-31.225 19.543-6.145 2.934-13.232 3.211-19.543.72-8.803-5.093-12.457-24.637-7.474-50.934.609-3.1 1.273-6.201 2.048-9.246 12.401 2.657 24.913 4.484 37.592 5.426a292.204 292.204 0 0 0 23.917 29.564 143.82 143.82 0 0 1-5.315 4.927zm13.564-13.454c-5.647-6.09-11.294-12.844-16.775-20.097 5.315.221 10.796.332 16.332.332 5.702 0 11.294-.111 16.83-.388-5.093 7.032-10.574 13.731-16.387 20.153zm72.36 16.609c-.498 6.754-3.82 13.066-9.135 17.329-8.803 5.093-27.571-1.55-47.834-18.934-2.325-1.993-4.651-4.152-7.031-6.367a273.654 273.654 0 0 0 23.363-29.675 273.027 273.027 0 0 0 37.758-5.813c.554 2.27 1.052 4.54 1.495 6.754 2.712 11.959 3.155 24.416 1.384 36.706zm10.076-59.515c-1.55.498-3.1.997-4.706 1.439-3.875-12.069-8.637-23.862-14.118-35.322 5.315-11.294 9.799-22.92 13.564-34.824a211.22 211.22 0 0 1 8.305 2.602c25.799 8.858 43.903 22.035 43.903 32.111 0 10.852-19.322 24.859-46.948 33.994zm-82.879-59.017c14.007 0 25.356 11.349 25.356 25.356 0 14.007-11.349 25.356-25.356 25.356s-25.356-11.349-25.356-25.356 11.349-25.356 25.356-25.356"/></svg>