<svg xmlns="http://www.w3.org/2000/svg" width="283.439" height="283.488" viewBox="155.91 0 283.439 283.488"><path fill="#FFF" d="M435.495 245.093l-55.197-55.197a13.279 13.279 0 0 0-9.412-3.875h-9.024c15.28-19.543 24.36-44.125 24.36-70.865C386.221 51.543 334.678 0 271.066 0S155.91 51.543 155.91 115.156s51.543 115.156 115.156 115.156c26.74 0 51.322-9.08 70.865-24.36v9.024a13.28 13.28 0 0 0 3.875 9.412l55.197 55.197c5.204 5.204 13.619 5.204 18.768 0l15.668-15.668c5.204-5.204 5.204-13.62.056-18.824zm-164.429-59.072c-39.142 0-70.865-31.668-70.865-70.865 0-39.142 31.668-70.865 70.865-70.865 39.142 0 70.865 31.668 70.865 70.865 0 39.141-31.668 70.865-70.865 70.865z"/></svg>