<svg xmlns="http://www.w3.org/2000/svg" width="274.602" height="274.602" viewBox="160.339 4.429 274.602 274.602"><path fill="#FFF" d="M297.388 4.429c-36.689.066-70 14.523-94.594 38.026l-19.772-19.772c-8.371-8.371-22.683-2.443-22.683 9.395v74.219c0 7.338 5.949 13.287 13.287 13.287h74.219c11.838 0 17.766-14.312 9.396-22.683l-23.114-23.114c17.087-15.999 39.198-24.862 62.688-25.065 51.155-.442 94.274 40.956 93.832 93.809-.42 50.138-41.067 92.209-93.007 92.209-22.769 0-44.289-8.126-61.248-23.007-2.626-2.304-6.592-2.164-9.062.306l-21.958 21.958c-2.697 2.697-2.564 7.095.267 9.651 24.347 21.991 56.61 35.382 92.002 35.382 75.829 0 137.3-61.472 137.301-137.3C434.941 65.989 373.13 4.293 297.388 4.429z"/></svg>