<svg xmlns="http://www.w3.org/2000/svg" width="241" height="60"><path d="M79.456 4.8h-4.8v33.6h22.992v-4.175H79.456zm31.585 5.568c2.016-1.12 4.272-1.68 6.768-1.68 3.775 0 6.928 1.328 9.456 3.984l3.12-3.024a14.736 14.736 0 0 0-5.568-3.912c-2.176-.88-4.577-1.32-7.2-1.32-3.36 0-6.4.744-9.12 2.232-2.72 1.488-4.848 3.536-6.384 6.144-1.536 2.608-2.304 5.544-2.304 8.808 0 3.264.768 6.2 2.304 8.808 1.536 2.609 3.656 4.656 6.36 6.144 2.704 1.488 5.736 2.232 9.096 2.232 2.624 0 5.032-.448 7.224-1.344 2.191-.896 4.056-2.208 5.592-3.936l-3.12-3.024c-2.56 2.688-5.712 4.032-9.456 4.032-2.496 0-4.752-.559-6.768-1.68-2.016-1.12-3.593-2.664-4.728-4.632-1.136-1.968-1.704-4.167-1.704-6.6 0-2.432.568-4.632 1.704-6.6 1.135-1.968 2.711-3.511 4.728-4.632zm49.775-3.72c-2.72-1.488-5.76-2.232-9.12-2.232-3.392 0-6.449.744-9.168 2.232-2.72 1.488-4.856 3.544-6.408 6.168-1.552 2.624-2.328 5.552-2.328 8.784 0 3.232.775 6.16 2.328 8.784 1.552 2.625 3.688 4.68 6.408 6.168 2.719 1.488 5.776 2.232 9.168 2.232 3.36 0 6.4-.744 9.12-2.232 2.719-1.488 4.848-3.535 6.384-6.144 1.536-2.607 2.304-5.544 2.304-8.808 0-3.264-.768-6.2-2.304-8.808-1.536-2.607-3.665-4.656-6.384-6.144zM163 28.2a12.326 12.326 0 0 1-4.656 4.632c-1.968 1.121-4.184 1.68-6.648 1.68-2.464 0-4.696-.559-6.696-1.68-2-1.12-3.569-2.664-4.704-4.632-1.136-1.968-1.704-4.167-1.704-6.6 0-2.432.568-4.632 1.704-6.6A12.222 12.222 0 0 1 145 10.368c2-1.12 4.231-1.68 6.696-1.68 2.464 0 4.68.56 6.648 1.68A12.333 12.333 0 0 1 163 15c1.135 1.968 1.704 4.168 1.704 6.6 0 2.433-.569 4.632-1.704 6.6zm24.984 4.2L175.889 4.8h-5.184l14.783 33.6h4.752l14.737-33.6h-4.801zm26.063 1.825V23.376h16.849v-4.08h-16.849V8.977h18.912V4.8h-23.711v33.6h24.383v-4.175zM60.056 5.184l-12.912 14.96c1.422.656 2.427 1.558 3.142 2.215.324.298.546.496.727.636l10.043-12.051v27.84h4.8v-33.6h-5.8zm-16.829 22.12c-.576 0-.684.062-1.646.947-.772.71-1.87 1.715-3.484 2.376l-7.041 8.158h6.8l8.037-9.644a21.229 21.229 0 0 1-1.021-.891c-.961-.884-1.069-.946-1.645-.946zm-19.364 9.298l3.78-4.38a7.676 7.676 0 0 0-1.817-.214c-2.955 0-4.543 1.461-5.703 2.528-.999.918-1.601 1.472-2.997 1.472-1.394 0-1.996-.554-2.994-1.472-1.16-1.067-2.748-2.528-5.703-2.528v4c1.395 0 1.997.554 2.995 1.472 1.16 1.067 2.748 2.528 5.702 2.528 2.955 0 4.544-1.461 5.704-2.528.381-.349.703-.645 1.033-.878zM25.827 14.6c1.395 0 1.997.554 2.995 1.472 1.16 1.067 2.749 2.528 5.703 2.528 2.956 0 4.544-1.461 5.705-2.527.81-.745 1.366-1.244 2.29-1.408l3.164-3.666a7.43 7.43 0 0 0-2.456-.399c-2.956 0-4.544 1.461-5.705 2.527-.999.918-1.602 1.473-2.998 1.473-1.395 0-1.997-.554-2.995-1.472-1.16-1.067-2.749-2.528-5.703-2.528-2.955 0-4.543 1.461-5.703 2.528-.999.918-1.601 1.472-2.997 1.472-1.394 0-1.996-.554-2.994-1.472-1.16-1.067-2.748-2.528-5.703-2.528v4c1.395 0 1.997.554 2.995 1.472 1.16 1.067 2.748 2.528 5.702 2.528 2.955 0 4.544-1.461 5.704-2.528.998-.917 1.601-1.472 2.996-1.472z" fill="#3E85AF"/><path fill="#FF8066" d="M61.056 27.387l-6.933-5.298v3.214H51.93c-.99 0-1.581-.283-2.198-.773-.253-.201-.51-.433-.8-.7-.18-.166-.376-.342-.581-.52l-.071-.06c-.656-.563-1.459-1.135-2.511-1.515a7.357 7.357 0 0 0-2.542-.433c-2.956 0-4.544 1.461-5.705 2.527-.999.918-1.602 1.473-2.998 1.473-1.395 0-1.997-.554-2.995-1.472-1.16-1.067-2.749-2.528-5.703-2.528-2.955 0-4.543 1.461-5.703 2.528-.999.918-1.601 1.472-2.997 1.472-1.394 0-1.996-.554-2.994-1.472-1.16-1.067-2.748-2.528-5.703-2.528v4c1.395 0 1.997.554 2.995 1.472 1.16 1.067 2.748 2.528 5.702 2.528 2.955 0 4.544-1.461 5.704-2.528.998-.918 1.601-1.472 2.996-1.472s1.997.554 2.995 1.472c1.16 1.067 2.749 2.528 5.703 2.528 2.956 0 4.544-1.461 5.705-2.527.85-.782 1.418-1.295 2.427-1.432.177-.024.363-.04.571-.04 1.396 0 1.999.554 2.998 1.473.28.257.587.537.93.814l.017.014c1.059.852 2.486 1.666 4.655 1.692v.006h2.296v3.382l6.933-5.297z"/><path d="M63.575 55.558c-.749-.196-1.357-.458-1.825-.786l.912-2.049c.44.29.95.523 1.53.701.58.179 1.151.268 1.713.268 1.067 0 1.6-.268 1.6-.801 0-.28-.152-.488-.456-.625-.304-.135-.793-.278-1.467-.428a13.915 13.915 0 0 1-1.853-.513c-.496-.183-.922-.475-1.277-.877s-.533-.945-.533-1.629c0-.599.164-1.139.491-1.621.328-.481.816-.863 1.467-1.144.65-.281 1.448-.422 2.394-.422.646 0 1.282.073 1.909.218a5.88 5.88 0 0 1 1.657.639l-.856 2.063c-.936-.505-1.844-.758-2.724-.758-.552 0-.955.082-1.207.246-.253.163-.379.377-.379.639s.149.458.449.589c.299.132.781.268 1.446.407.749.159 1.369.33 1.86.513s.917.473 1.277.87c.36.398.541.938.541 1.622 0 .589-.164 1.123-.491 1.6-.328.478-.819.859-1.474 1.145-.655.285-1.451.428-2.386.428a9.07 9.07 0 0 1-2.318-.295zm34.084-2.049v2.147h-7.89V45.83h7.707v2.147H92.52v1.656h4.366v2.078H92.52v1.797h5.139zm24.089-.464h-1.516v2.611h-2.78V45.83h4.492c.889 0 1.661.147 2.316.441.655.295 1.16.717 1.516 1.264.355.548.534 1.191.534 1.931 0 .711-.167 1.331-.499 1.859-.333.529-.807.943-1.425 1.243l2.12 3.088h-2.976l-1.782-2.611zm1.319-4.646c-.29-.253-.721-.379-1.292-.379h-1.544v2.878h1.544c.571 0 1.001-.124 1.292-.372s.436-.602.436-1.06c0-.459-.146-.814-.436-1.067zm32.99-2.569l-4.211 9.826h-2.737l-4.197-9.826h3.004l2.667 6.401 2.724-6.401h2.75zm18.824 0h2.78v9.826h-2.78V45.83zm25.135 9.371a4.894 4.894 0 0 1-1.931-1.818c-.468-.776-.701-1.656-.701-2.639s.233-1.862.701-2.64a4.878 4.878 0 0 1 1.931-1.817c.818-.436 1.743-.653 2.772-.653.898 0 1.708.159 2.429.478s1.319.777 1.797 1.376l-1.769 1.601c-.637-.768-1.409-1.151-2.316-1.151-.533 0-1.009.117-1.425.351-.417.234-.739.564-.969.99s-.344.914-.344 1.467c0 .552.114 1.041.344 1.467s.552.756.969.989a2.86 2.86 0 0 0 1.425.352c.907 0 1.68-.384 2.316-1.151L207.014 54a4.674 4.674 0 0 1-1.797 1.376c-.721.317-1.53.477-2.429.477-1.029 0-1.953-.218-2.772-.652zm34.372-1.692v2.147h-7.89V45.83h7.707v2.147h-4.955v1.656h4.365v2.078h-4.365v1.797h5.138z" fill="#3E85AF"/></svg>