<svg xmlns="http://www.w3.org/2000/svg" width="248.028" height="283.46" viewBox="173.626 0 248.028 283.46"><path fill="#FFF" d="M235.633 124.014c34.27 0 62.007-27.737 62.007-62.007S269.903 0 235.633 0s-62.007 27.737-62.007 62.007 27.737 62.007 62.007 62.007zm0-88.581c14.671 0 26.574 11.903 26.574 26.574s-11.903 26.574-26.574 26.574-26.574-11.903-26.574-26.574 11.903-26.574 26.574-26.574zm124.014 124.013c-34.27 0-62.007 27.737-62.007 62.007s27.737 62.007 62.007 62.007 62.007-27.737 62.007-62.007-27.737-62.007-62.007-62.007zm0 88.582c-14.671 0-26.574-11.903-26.574-26.574s11.903-26.574 26.574-26.574 26.574 11.903 26.574 26.574c0 14.67-11.903 26.574-26.574 26.574zM390.816.111l17.495-.055c10.74-.055 17.107 12.069 10.907 20.927l-202.74 256.72a13.26 13.26 0 0 1-10.851 5.647l-18.491.055c-10.796 0-17.107-12.125-10.907-20.927L379.965 5.758A13.261 13.261 0 0 1 390.816.111z"/></svg>