<svg xmlns="http://www.w3.org/2000/svg" width="283.466" height="283.466" viewBox="155.904 -0.006 283.466 283.466"><path d="M429.072 13.619L371.495.332c-6.256-1.439-12.678 1.827-15.225 7.695l-26.574 62.007c-2.325 5.426-.775 11.792 3.82 15.502l33.55 27.46c-19.931 42.464-54.754 77.785-98.104 98.104l-27.46-33.55c-3.765-4.595-10.076-6.145-15.502-3.82l-62.007 26.574c-5.924 2.602-9.19 9.024-7.751 15.28l13.287 57.578a13.284 13.284 0 0 0 12.955 10.298c141.785 0 256.886-114.879 256.886-256.886 0-6.2-4.263-11.571-10.298-12.955z"/></svg>