<svg xmlns="http://www.w3.org/2000/svg" width="24" height="29.001"><path fill="#D64743" d="M9.734 1.63l.01-.045v19.406L3.652 14.89a1.58 1.58 0 0 0-1.123-.462c-.423 0-.823.164-1.121.462l-.946.949A1.576 1.576 0 0 0 0 16.96c0 .425.164.823.46 1.121l10.419 10.457c.299.3.696.464 1.12.463.424.001.823-.163 1.121-.463l10.419-10.457c.298-.298.461-.696.461-1.121a1.581 1.581 0 0 0-.461-1.121l-.946-.949a1.565 1.565 0 0 0-1.117-.462c-.421 0-.798.164-1.094.462l-6.126 6.169V1.609C14.256.734 13.505 0 12.635 0h-1.339c-.87 0-1.562.756-1.562 1.63z"/></svg>